<svg width="33" height="33" viewBox="0 0 33 33" fill="none" xmlns="http://www.w3.org/2000/svg">
<path d="M28.575 9.98021L28.5746 9.97886C27.7934 7.33017 25.5716 5.10812 22.9231 4.32646C20.7808 3.70344 19.5675 3.84153 18.8096 4.40746L28.575 9.98021ZM28.575 9.98021C29.2103 12.1197 29.0563 13.3233 28.4765 14.0647L28.4714 14.0711M28.575 9.98021L28.4714 14.0711M28.4714 14.0711L28.4665 14.0777M28.4714 14.0711L28.4665 14.0777M28.4665 14.0777C28.1221 14.5385 27.6216 14.82 27.0272 14.986C26.4272 15.1536 25.7776 15.19 25.2006 15.19H21.3739C20.0492 15.19 19.1756 14.8178 18.6194 14.1965C18.0495 13.5598 17.6973 12.534 17.6973 10.9934V7.67337C17.6973 6.44284 17.8702 5.10969 18.8094 4.40761L28.4665 14.0777Z" stroke="#292B2C" stroke-width="1.5"/>
<path d="M25.0468 18.8047L25.0467 18.8048L25.0552 18.8142C25.2543 19.0364 25.349 19.338 25.3097 19.6448L25.3096 19.6452C24.9362 22.57 23.3283 25.2663 20.906 27.0268L20.9041 27.0282C19.0473 28.3866 16.8693 29.0835 14.6136 29.0835C13.926 29.0835 13.2422 29.0211 12.5607 28.8848L12.5607 28.8847L12.5525 28.8832C8.25555 28.0736 4.8265 24.6439 4.01721 20.3609L4.0172 20.3609C3.4549 17.387 4.10403 14.4245 5.87321 11.995L5.87361 11.9945C7.63416 9.57216 10.3304 7.96421 13.2552 7.59083L13.2581 7.59046C13.5511 7.55191 13.865 7.64688 14.0863 7.84529L14.0862 7.84537L14.0957 7.85363C14.3295 8.05622 14.4636 8.35522 14.4636 8.6602V13.4335C14.4636 16.1944 16.706 18.4369 19.4669 18.4369H24.2403C24.5452 18.4369 24.8442 18.571 25.0468 18.8047Z" stroke="#292B2C" stroke-width="1.5"/>
</svg>
